#!OML:ASF E:\basketball\basketball\Project 1\Capture day 1\Session 1\Subject.ASF
:FULLY-SPECIFIED
:DEGREES
33
root -33.2121 14.2818 -0.454147 44.4562 76.0171 32.6886
lowerback 0.674874 -2.86132 -9.22743
upperback 3.45012 -3.62884 -0.332678
thorax 3.78832 -2.06243 4.70026
lowerneck -7.82202 -1.68088 -11.2331
upperneck -0.636054 -1.43924 14.7604
head 1.32204 -0.394387 6.30767
rclavicle 2.57923e-014 1.89839e-014
rhumerus -36.66 7.62431 -90.7895
rradius 111.033
rwrist -14.0681
rhand -30.6064 35.1515
rfingers 7.12502
rthumb -3.90305 5.20745
lclavicle 2.57923e-014 1.89839e-014
lhumerus -26.6628 -26.6131 104.932
lradius 81.7135
lwrist 17.7381
lhand -22.7601 22.6853
lfingers 7.12502
lthumb 3.67479 52.6334
rfemur -29.432 -14.1478 -1.0829
rtibia 79.3693
rfoot -25.61 14.2941
rtoes -27.1106
lfemur 6.38322 7.82903 -25.9927
ltibia 24.4007
lfoot -35.3507 11.1159
ltoes -8.14477
34
root -33.0836 14.2253 -0.427167 43.0769 75.7342 31.0049
lowerback 0.833039 -2.93613 -8.88323
upperback 3.5174 -3.75987 0.0271815
thorax 3.78882 -2.12857 4.88552
lowerneck -7.79047 -1.31825 -11.0292
upperneck -0.909273 -0.932896 13.9309
head 1.15746 -0.164462 6.02703
rclavicle -9.36773e-014 -4.51241e-014
rhumerus -34.8619 9.38839 -90.9612
rradius 111.43
rwrist -9.56807
rhand -30.455 34.9044
rfingers 7.12502
rthumb -3.75681 4.95775
lclavicle -9.36773e-014 -4.51241e-014
lhumerus -27.6017 -25.078 104.657
lradius 80.7264
lwrist 17.6381
lhand -23.6156 22.4941
lfingers 7.12502
lthumb 2.84858 52.4548
rfemur -29.1393 -13.8629 -1.06123
rtibia 79.2843
rfoot -26.1692 14.2468
rtoes -28.6709
lfemur 5.9417 8.22408 -25.6811
ltibia 26.0246
lfoot -35.8854 9.78744
ltoes -9.28377
35
root -32.9531 14.1697 -0.394585 41.1435 75.4355 28.8398
lowerback 1.10274 -2.97966 -8.58605
upperback 3.65591 -3.85618 0.507863
thorax 3.80948 -2.18393 5.2293
lowerneck -7.9756 -0.907244 -10.7766
upperneck -1.07596 -0.357664 12.8774
head 1.05407 0.105161 5.67058
rclavicle 1.8487e-014 -1.86858e-014
rhumerus -32.8813 11.6073 -91.0246
rradius 111.7
rwrist -5.62094
rhand -30.1832 34.5843
rfingers 7.12502
rthumb -3.49433 4.6332
lclavicle 1.8487e-014 -1.86858e-014
lhumerus -28.6307 -23.0194 104.309
lradius 79.715
lwrist 16.3868
lhand -23.1179 22.9057
lfingers 7.12502
lthumb 3.32926 52.8595
rfemur -28.5737 -13.3426 -0.911902
rtibia 78.9149
rfoot -26.9969 14.0697
rtoes -29.8189
lfemur 5.2367 8.89842 -25.1748
ltibia 28.4358
lfoot -36.1764 8.9233
ltoes -11.54
36
root -32.8179 14.1307 -0.36486 39.799 75.5271 27.1945
lowerback 1.43041 -3.08413 -7.94257
upperback 3.83852 -4.03123 0.900953
thorax 3.82202 -2.26473 5.28686
lowerneck -8.10472 -0.571179 -10.3072
upperneck -1.55919 0.115932 11.9693
head 0.870442 0.326533 5.32048
rclavicle -3.43897e-014 3.06128e-014
rhumerus -30.758 13.8659 -91.2093
rradius 111.75
rwrist -1.73239
rhand -29.6076 33.8273
rfingers 7.12502
rthumb -2.93854 3.8678
lclavicle -3.43897e-014 3.06128e-014
lhumerus -29.985 -21.9034 104.214
lradius 78.5086
lwrist 17.4038
lhand -26.3294 21.0802
lfingers 7.12502
lthumb 0.227584 51.0598
rfemur -27.6837 -13.0155 -0.573686
rtibia 78.213
rfoot -27.9934 13.968
rtoes -30.5428
lfemur 3.99041 9.45767 -24.4485
ltibia 31.5954
lfoot -35.8516 9.17037
ltoes -17.2572
37
root -32.6828 14.1148 -0.329609 38.1341 75.6132 25.3645
lowerback 2.09919 -3.1128 -7.24731
upperback 3.97466 -4.12261 1.20348
thorax 3.56764 -2.28754 5.24624
lowerneck -7.87114 -0.227279 -9.85587
upperneck -2.17861 0.573111 11.2161
head 0.59732 0.533002 5.01969
rclavicle -3.73715e-014 -5.1684e-015
rhumerus -28.8042 16.1534 -91.4779
rradius 111.626
rwrist 1.87025
rhand -28.8064 33.2831
rfingers 7.12502
rthumb -2.1647 3.31429
lclavicle -3.73715e-014 -5.1684e-015
lhumerus -31.6671 -20.5788 103.962
lradius 77.3375
lwrist 17.6843
lhand -25.8598 23.5488
lfingers 7.12502
lthumb 0.681189 53.5274
rfemur -26.5024 -12.5118 -0.104224
rtibia 77.2169
rfoot -29.1689 13.525
rtoes -31.7944
lfemur 2.45543 10.0573 -23.6214
ltibia 35.4022
lfoot -34.7148 9.96432
ltoes -22.7464
